<?xml version="1.0" encoding="utf-8"?>
<!-- Generator: Adobe Illustrator 24.2.1, SVG Export Plug-In . SVG Version: 6.00 Build 0)  -->
<svg version="1.1" xmlns="http://www.w3.org/2000/svg" xmlns:xlink="http://www.w3.org/1999/xlink" x="0px" y="0px"
	 viewBox="0 0 166 45" style="enable-background:new 0 0 166 45;" xml:space="preserve">
<style type="text/css">
	.st0{display:none;}
	.st1{fill:#BF0020;}
</style>
<g id="레이어_1" class="st0">
</g>
<g id="레이어_2">
	<g>
		<path class="st1" d="M60.58,22.16l0.05,16.94h-8.88c-3.68,0-5.52-1.95-5.52-5.86V10.49c0-3.9,1.84-5.86,5.52-5.86h2.98
			c3.68,0,5.52,1.95,5.52,5.86v4.85h-4.61v-4.51c0-1.34-0.69-2.02-2.06-2.02h-0.91c-1.22,0-1.82,0.67-1.82,2.02v22.08
			c0,1.34,0.69,2.02,2.06,2.02h3.07V26h-2.78v-3.84H60.58z"/>
		<path class="st1" d="M64.95,39.1V4.64h4.61V39.1H64.95z"/>
		<path class="st1" d="M84.05,20.24v3.84h-5.57V39.1h-4.61V4.64h10.18v3.84h-5.57v11.76H84.05z"/>
		<path class="st1" d="M97.83,39.1H87.65V4.64h4.61v30.62h5.57V39.1z"/>
		<path class="st1" d="M100.95,39.1V4.64h4.61V39.1H100.95z"/>
		<path class="st1" d="M118.18,21.53l4.9,17.57h-4.13l-3.26-12.05h-0.1l-3.26,12.05h-4.13l4.85-17.57l-4.37-16.9h4.18l2.74,11.28
			h0.1l2.74-11.28h4.18L118.18,21.53z"/>
	</g>
</g>
</svg>
